<svg width="16" height="16" viewBox="0 0 16 16" fill="none" xmlns="http://www.w3.org/2000/svg">
<path d="M8.5 11.6875C8.16863 11.6875 7.90039 11.9557 7.90039 12.2871C7.9006 12.6183 8.16876 12.8867 8.5 12.8867H13.4004C13.7314 12.8865 13.9998 12.6182 14 12.2871C14 11.9559 13.7316 11.6877 13.4004 11.6875H8.5Z" fill="black"/>
<path d="M2.59961 7.84375C2.26842 7.84396 2 8.1131 2 8.44434C2.00043 8.77521 2.26868 9.04373 2.59961 9.04395H13.4004C13.7313 9.04373 13.9996 8.77521 14 8.44434C14 8.1131 13.7316 7.84396 13.4004 7.84375H2.59961Z" fill="black"/>
<path d="M2.59961 4C2.26848 4.00021 2.00009 4.26942 2 4.60059C2.00021 4.93165 2.26855 5.19998 2.59961 5.2002H13.4004C13.7315 5.19998 13.9998 4.93165 14 4.60059C13.9999 4.26942 13.7315 4.00021 13.4004 4H2.59961Z" fill="black"/>
</svg>
