<svg width="16" height="16" viewBox="0 0 16 16" fill="none" xmlns="http://www.w3.org/2000/svg">
<path d="M7.5 11.6875C7.83137 11.6875 8.09961 11.9557 8.09961 12.2871C8.0994 12.6183 7.83124 12.8867 7.5 12.8867H2.59961C2.26855 12.8865 2.00021 12.6182 2 12.2871C2.00002 11.9559 2.26843 11.6877 2.59961 11.6875H7.5Z" fill="white"/>
<path d="M13.4004 7.84375C13.7316 7.84396 14 8.1131 14 8.44434C13.9996 8.77521 13.7313 9.04373 13.4004 9.04395H2.59961C2.26868 9.04373 2.00043 8.77521 2 8.44434C2 8.1131 2.26842 7.84396 2.59961 7.84375H13.4004Z" fill="white"/>
<path d="M13.4004 4C13.7315 4.00021 13.9999 4.26942 14 4.60059C13.9998 4.93165 13.7315 5.19998 13.4004 5.2002H2.59961C2.26855 5.19998 2.00021 4.93165 2 4.60059C2.00009 4.26942 2.26848 4.00021 2.59961 4H13.4004Z" fill="white"/>
</svg>
