<svg width="16" height="16" viewBox="0 0 16 16" fill="none" xmlns="http://www.w3.org/2000/svg">
<path d="M0 8C0 4.7898 0 3.1847 0.770425 2.03168C1.10395 1.53252 1.53252 1.10395 2.03168 0.770425C3.1847 0 4.7898 0 8 0C11.2102 0 12.8153 0 13.9683 0.770425C14.4675 1.10395 14.8961 1.53252 15.2296 2.03168C16 3.1847 16 4.7898 16 8C16 11.2102 16 12.8153 15.2296 13.9683C14.8961 14.4675 14.4675 14.8961 13.9683 15.2296C12.8153 16 11.2102 16 8 16C4.7898 16 3.1847 16 2.03168 15.2296C1.53252 14.8961 1.10395 14.4675 0.770425 13.9683C0 12.8153 0 11.2102 0 8Z" fill="#0C5AEA"/>
<path d="M7.12245 12.861C6.518 12.861 6.00956 12.733 5.59711 12.477C5.19178 12.2281 4.90378 11.869 4.73311 11.3996C4.56245 10.9374 4.52689 10.3934 4.62645 9.76762L5.20245 6.14095C5.30911 5.50095 5.51178 4.94984 5.81045 4.48762C6.11622 4.0254 6.50378 3.66984 6.97311 3.42095C7.44245 3.17206 7.97578 3.04762 8.57311 3.04762C9.11356 3.04762 9.56156 3.15429 9.91711 3.36762C10.2727 3.57384 10.5251 3.87251 10.6744 4.26362C10.8238 4.65473 10.8558 5.12051 10.7704 5.66095L10.0451 10.2476H9.28778L9.38378 9.66095H9.08511L9.31978 9.44762C9.27711 9.71784 9.13845 9.93829 8.90378 10.109C8.67622 10.2725 8.39178 10.3543 8.05045 10.3543C7.58822 10.3543 7.254 10.2156 7.04778 9.93829C6.84867 9.65384 6.79178 9.2414 6.87711 8.70095L7.07978 7.42095C7.16511 6.88051 7.35356 6.47162 7.64511 6.19429C7.93667 5.90984 8.31356 5.76762 8.77578 5.76762C9.11711 5.76762 9.37667 5.85295 9.55445 6.02362C9.73222 6.18717 9.79978 6.40762 9.75711 6.68495L9.65045 6.46095H9.90645L9.91711 5.71429V5.66095C9.98111 5.25562 9.96689 4.91429 9.87445 4.63695C9.78911 4.35962 9.62556 4.14984 9.38378 4.00762C9.14911 3.8654 8.83978 3.79429 8.45578 3.79429C7.81578 3.79429 7.286 4.00051 6.86645 4.41295C6.44689 4.8254 6.17667 5.4014 6.05578 6.14095L5.47978 9.76762C5.366 10.4787 5.46556 11.037 5.77845 11.4423C6.09845 11.8547 6.58911 12.061 7.25045 12.061H7.99711L7.86911 12.861H7.12245ZM8.43445 9.68229C8.726 9.68229 8.95356 9.5934 9.11711 9.41562C9.28778 9.23784 9.40156 8.96406 9.45845 8.59429L9.63978 7.41029C9.69667 7.07606 9.66822 6.83073 9.55445 6.67429C9.44067 6.51784 9.238 6.43962 8.94645 6.43962C8.662 6.43962 8.43445 6.5214 8.26378 6.68495C8.10022 6.8414 7.99 7.08673 7.93311 7.42095L7.73045 8.70095C7.68067 9.03517 7.71267 9.28406 7.82645 9.44762C7.94734 9.60406 8.15 9.68229 8.43445 9.68229Z" fill="white"/>
</svg>
