<svg width="16" height="16" viewBox="0 0 16 16" fill="none" xmlns="http://www.w3.org/2000/svg">
<path d="M4 14V2H8.6178C9.48953 2 10.214 2.13672 10.7912 2.41016C11.3724 2.67969 11.8063 3.04883 12.0929 3.51758C12.3835 3.98633 12.5288 4.51758 12.5288 5.11133C12.5288 5.59961 12.4346 6.01758 12.2461 6.36523C12.0576 6.70898 11.8043 6.98828 11.4863 7.20312C11.1682 7.41797 10.8128 7.57227 10.4202 7.66602V7.7832C10.8482 7.80664 11.2585 7.9375 11.6512 8.17578C12.0478 8.41016 12.3717 8.74219 12.623 9.17188C12.8743 9.60156 13 10.1211 13 10.7305C13 11.3516 12.8488 11.9102 12.5465 12.4063C12.2441 12.8984 11.7886 13.2871 11.18 13.5723C10.5713 13.8574 9.80563 14 8.88285 14H4ZM6.18521 12.1836H8.53534C9.32853 12.1836 9.89987 12.0332 10.2493 11.7324C10.6027 11.4277 10.7795 11.0371 10.7795 10.5605C10.7795 10.2051 10.6911 9.88477 10.5144 9.59961C10.3377 9.31055 10.0864 9.08398 9.76047 8.91992C9.43456 8.75195 9.04581 8.66797 8.59424 8.66797H6.18521V12.1836ZM6.18521 7.10352H8.34686C8.72382 7.10352 9.06348 7.03516 9.36584 6.89844C9.66819 6.75781 9.90576 6.56055 10.0785 6.30664C10.2552 6.04883 10.3436 5.74414 10.3436 5.39258C10.3436 4.92773 10.1787 4.54492 9.84882 4.24414C9.52291 3.94336 9.03796 3.79297 8.39398 3.79297H6.18521V7.10352Z" fill="black"/>
</svg>
