<svg width="16" height="16" viewBox="0 0 16 16" fill="none" xmlns="http://www.w3.org/2000/svg">
<path d="M4 14.2596V2.25955H8.2173C9.50257 2.25955 10.5191 2.51339 11.2667 3.02106C12.0206 3.52873 12.3975 4.18982 12.3975 5.00432C12.3975 5.68494 12.1843 6.27629 11.758 6.77838C11.3316 7.28047 10.7415 7.63752 9.98764 7.84951V7.88298C10.9022 7.97782 11.6313 8.28466 12.1751 8.80348C12.725 9.31673 13 9.98619 13 10.8119C13 11.8384 12.552 12.6696 11.656 13.3056C10.76 13.9416 9.62925 14.2596 8.26365 14.2596H4ZM6.1967 3.85788V7.2721H7.6241C8.39032 7.2721 8.9897 7.11032 9.42225 6.78675C9.86097 6.4576 10.0803 5.99456 10.0803 5.39763C10.0803 4.37113 9.32029 3.85788 7.80021 3.85788H6.1967ZM6.1967 8.87043V12.6696H8.07827C8.9001 12.6696 9.53347 12.4994 9.97837 12.1591C10.4295 11.8132 10.655 11.339 10.655 10.7365C10.655 9.49247 9.70031 8.87043 7.79094 8.87043H6.1967Z" fill="white"/>
</svg>
