<svg width="10" height="11" viewBox="0 0 10 11" fill="none" xmlns="http://www.w3.org/2000/svg">
<path d="M8.45312 0.100391C8.99039 0.100391 9.28499 0.725794 8.94238 1.13945L6.05078 4.62578C5.77478 4.95886 5.77478 5.44114 6.05078 5.77422L8.94141 9.25859C9.28489 9.6727 8.99016 10.2996 8.45215 10.2996C8.26346 10.2996 8.08458 10.2161 7.96387 10.0711L4.59082 6.01543L1.21875 10.0721C1.09884 10.2163 0.92097 10.2996 0.733398 10.2996C0.196793 10.2996 -0.0946644 9.67298 0.250977 9.2625L3.18359 5.78008C3.46567 5.44509 3.46567 4.95491 3.18359 4.61992L0.25 1.13652C-0.0952758 0.726477 0.196368 0.100391 0.732422 0.100391C0.920734 0.100525 1.09909 0.184476 1.21875 0.329884L4.59082 4.43242L7.96289 0.331837C8.08335 0.1853 8.26345 0.100536 8.45312 0.100391Z" fill="white" stroke="white" stroke-width="0.2"/>
</svg>
