<svg width="16" height="16" viewBox="0 0 16 16" fill="none" xmlns="http://www.w3.org/2000/svg">
<path fill-rule="evenodd" clip-rule="evenodd" d="M9.9298 2C10.4405 2.00146 10.9299 2.20498 11.291 2.56611C11.6522 2.92724 11.8557 3.41663 11.8571 3.92734C11.8572 3.93072 11.8571 3.93411 11.857 3.93749L11.8527 4.14286H12.0446C13.1246 4.14286 14 5.0183 14 6.09821V12.0446C14 13.1246 13.1246 14 12.0446 14H6.09821C5.0183 14 4.14286 13.1246 4.14286 12.0446V11.8571H3.92734C3.41663 11.8557 2.92724 11.6522 2.56611 11.291C2.20498 10.9299 2.00146 10.4405 2 9.9298V4.1416C2.00168 3.57413 2.22786 3.03039 2.62912 2.62912C3.03039 2.22786 3.57413 2.00168 4.1416 2H9.9298ZM6.09821 5C5.49169 5 5 5.49169 5 6.09821V12.0446C5 12.6512 5.49169 13.1429 6.09821 13.1429H12.0446C12.6512 13.1429 13.1429 12.6512 13.1429 12.0446V6.09821C13.1429 5.49169 12.6512 5 12.0446 5H6.09821ZM4.1122 2.85764C3.78277 2.86676 3.46881 3.0016 3.2352 3.2352C2.99407 3.47634 2.85815 3.8031 2.85714 4.14411V9.92734L2.85754 9.95397C2.86511 10.2285 2.97751 10.4902 3.17222 10.6849C3.3732 10.8859 3.64557 10.9992 3.9298 11H4.14286V6.09821C4.14286 5.0183 5.0183 4.14286 6.09821 4.14286H10.9954L10.9999 3.92679C10.9984 3.64364 10.8852 3.37249 10.6849 3.17222C10.4902 2.97751 10.2285 2.86511 9.95397 2.85754L9.92734 2.85714H4.14411L4.1122 2.85764Z" fill="black" stroke="black" stroke-width="0.2" stroke-linecap="round" stroke-linejoin="round"/>
</svg>
