<svg width="16" height="16" viewBox="0 0 16 16" fill="none" xmlns="http://www.w3.org/2000/svg">
<path fill-rule="evenodd" clip-rule="evenodd" d="M11.6458 5.59637C12.2542 5.46713 12.7045 5.47328 12.9753 5.49888C13.4579 5.54622 13.7325 5.68901 13.8523 5.95566L14 6.2776L5.79189 10.6987C5.90743 11.1204 5.86232 11.5677 5.66462 11.9605C5.46693 12.3532 5.12957 12.6659 4.71289 12.8426C4.29622 13.0192 3.82743 13.0482 3.39041 12.9245C2.95339 12.8008 2.57666 12.5323 2.32764 12.1672C2.07862 11.8021 1.97356 11.3641 2.03125 10.9317C2.08894 10.4993 2.30563 10.1006 2.64253 9.80701C2.97943 9.51341 3.41457 9.34405 3.87006 9.32925C4.32556 9.31446 4.77169 9.45519 5.12864 9.72624C5.29746 9.66943 5.62575 9.53534 6.02707 9.25026C6.37488 9.00228 6.43428 8.71643 6.50865 8.35457C6.58892 7.95817 6.69085 7.46477 7.23263 7.09651C8.378 6.31804 11.1107 5.71025 11.6458 5.59637ZM4.33582 10.2198C4.14027 10.1423 3.9251 10.122 3.7175 10.1615C3.50991 10.201 3.3192 10.2985 3.16953 10.4417C3.01986 10.5848 2.91796 10.7672 2.87666 10.9658C2.83537 11.1643 2.85654 11.3702 2.93754 11.5572C3.01854 11.7443 3.15571 11.9041 3.3317 12.0166C3.50769 12.1291 3.71463 12.1891 3.92629 12.1891C4.21012 12.1891 4.48233 12.0813 4.68303 11.8893C4.88372 11.6973 4.99648 11.437 4.99648 11.1655C4.99648 10.963 4.93372 10.7651 4.81612 10.5968C4.69853 10.4284 4.53137 10.2972 4.33582 10.2198ZM8.15682 7.71627C8.0786 7.68528 7.99253 7.67718 7.90949 7.69298C7.82646 7.70878 7.75017 7.74778 7.69031 7.80504C7.63044 7.8623 7.58967 7.93527 7.57315 8.01469C7.55663 8.09411 7.56513 8.17644 7.59753 8.25126C7.62993 8.32607 7.68479 8.39003 7.75518 8.43502C7.82558 8.48001 7.90836 8.50402 7.99302 8.50402C8.04923 8.50402 8.10489 8.49343 8.15682 8.47285C8.20875 8.45228 8.25596 8.42211 8.29571 8.38408C8.33546 8.34607 8.36698 8.30093 8.38849 8.25126C8.41001 8.20158 8.4211 8.14833 8.4211 8.09456C8.4211 8.01358 8.39597 7.93443 8.34893 7.86709C8.3019 7.79976 8.23504 7.74726 8.15682 7.71627Z" fill="white"/>
<path d="M14 10.5513L13.4582 10.9096C13.2776 11.0119 12.9833 11.1478 12.4297 11.1486C12.3412 11.1486 12.2454 11.1458 12.1414 11.1399C10.7825 11.0631 9.45168 10.4469 8.95136 10.2153L8.85451 10.1708L8.11527 9.83602L10.3557 8.60306L14 10.5513Z" fill="white"/>
<path fill-rule="evenodd" clip-rule="evenodd" d="M3.79868 4.00405C4.19588 3.97882 4.59151 4.07191 4.93114 4.27051C5.27077 4.46911 5.53774 4.76349 5.69532 5.11314C5.85291 5.46279 5.89336 5.85055 5.81115 6.2231L6.91267 6.86135L6.53219 7.23037C6.48817 7.28094 6.44947 7.33555 6.41663 7.39338L6.23416 7.71659L5.12383 7.28435C4.78379 7.54409 4.36146 7.68542 3.92629 7.68511C3.52822 7.68509 3.13991 7.56713 2.81479 7.34742C2.48967 7.12772 2.2437 6.81706 2.1107 6.45819C1.9777 6.09931 1.9642 5.70984 2.07206 5.34333C2.17992 4.97681 2.40384 4.65126 2.71302 4.41143C3.02221 4.17161 3.40149 4.02929 3.79868 4.00405ZM3.92629 4.81891C3.64246 4.81891 3.37025 4.92677 3.16955 5.11873C2.96885 5.3107 2.8561 5.57107 2.8561 5.84255C2.8561 6.04501 2.91887 6.24292 3.03646 6.41125C3.15405 6.57959 3.32119 6.71079 3.51674 6.78827C3.71229 6.86575 3.92748 6.88602 4.13508 6.84653C4.34267 6.80703 4.53336 6.70953 4.68303 6.56637C4.8327 6.42322 4.93463 6.24082 4.97592 6.04226C5.01721 5.84369 4.99602 5.63786 4.91502 5.45082C4.83402 5.26378 4.69684 5.10391 4.52085 4.99143C4.34486 4.87895 4.13795 4.81892 3.92629 4.81891Z" fill="white"/>
</svg>
