<svg width="16" height="16" viewBox="0 0 16 16" fill="none" xmlns="http://www.w3.org/2000/svg">
<path d="M6.11012 5.42882C6.34009 5.42037 6.5332 5.60528 6.54141 5.84182L6.74975 11.8418C6.75796 12.0784 6.57818 12.277 6.34821 12.2854C6.11824 12.2939 5.92514 12.109 5.91692 11.8724L5.70859 5.87243C5.70037 5.63589 5.88015 5.43727 6.11012 5.42882Z" fill="#F85363"/>
<path d="M8 5.42855C8.23012 5.42855 8.41667 5.62043 8.41667 5.85713V11.8571C8.41667 12.0938 8.23012 12.2857 8 12.2857C7.76988 12.2857 7.58333 12.0938 7.58333 11.8571V5.85713C7.58333 5.62043 7.76988 5.42855 8 5.42855Z" fill="#F85363"/>
<path d="M9.88988 5.42882C10.1198 5.43727 10.2996 5.63589 10.2914 5.87243L10.0831 11.8724C10.0749 12.109 9.88176 12.2939 9.65179 12.2854C9.42182 12.277 9.24204 12.0784 9.25025 11.8418L9.45859 5.84182C9.4668 5.60528 9.65991 5.42037 9.88988 5.42882Z" fill="#F85363"/>
<path fill-rule="evenodd" clip-rule="evenodd" d="M9.04167 2C9.17832 1.99975 9.31369 2.0272 9.44002 2.0808C9.56673 2.13456 9.68185 2.21356 9.77877 2.31324C9.87569 2.41293 9.95251 2.53134 10.0048 2.66167C10.0569 2.79161 10.0836 2.93085 10.0833 3.07141V3.71426H12.5833C12.8135 3.71426 13 3.90614 13 4.14284C13 4.37953 12.8135 4.57141 12.5833 4.57141H12.1414L11.645 12.741L11.645 12.741C11.6035 13.4351 11.1015 14 10.3958 14H5.60417C4.9057 14 4.39214 13.4409 4.35501 12.741L4.35498 12.741L3.85856 4.57141H3.41667C3.18655 4.57141 3 4.37953 3 4.14284C3 3.90614 3.18655 3.71426 3.41667 3.71426H5.91667V3.07141C5.91643 2.93085 5.94314 2.79161 5.99525 2.66167C6.04752 2.53134 6.12431 2.41293 6.22123 2.31324C6.31815 2.21356 6.43327 2.13456 6.55998 2.0808C6.68631 2.0272 6.82168 1.99976 6.95833 2H9.04167ZM5.18669 12.6875L5.18694 12.6923C5.20135 12.9807 5.38753 13.1429 5.60417 13.1429H10.3958C10.6103 13.1429 10.7957 12.9843 10.8133 12.6882L10.8133 12.6875L11.3065 4.57141H4.69352L5.18669 12.6875ZM6.95711 2.85712C6.92989 2.85704 6.90293 2.86251 6.87777 2.87318C6.8526 2.88386 6.82972 2.89953 6.81048 2.91932C6.79123 2.93912 6.776 2.96265 6.76561 2.98854C6.75524 3.01442 6.74992 3.04215 6.75 3.07015V3.71426H9.25V3.07015C9.25008 3.04216 9.24479 3.01442 9.23441 2.98854C9.22403 2.96265 9.20877 2.93912 9.18952 2.91932C9.17028 2.89953 9.1474 2.88386 9.12223 2.87318C9.09707 2.86251 9.07011 2.85704 9.04289 2.85712H6.95711Z" fill="#F85363"/>
</svg>
