<svg width="16" height="16" viewBox="0 0 16 16" fill="none" xmlns="http://www.w3.org/2000/svg">
<path d="M5.42857 10.5455C5.42857 10.3195 5.62045 10.1364 5.85714 10.1364C6.09384 10.1364 6.28571 10.3195 6.28571 10.5455V11.5682C6.28571 11.7309 6.35344 11.887 6.474 12.0021C6.59456 12.1172 6.75808 12.1818 6.92857 12.1818L12.5 12.1818L12.516 12.1816C12.6807 12.1777 12.8378 12.1136 12.9546 12.0021C13.0751 11.887 13.1429 11.7309 13.1429 11.5682V5.43182C13.1429 5.26907 13.0751 5.11299 12.9546 4.99791C12.834 4.88283 12.6705 4.81818 12.5 4.81818L6.92857 4.81818C6.75808 4.81818 6.59456 4.88283 6.474 4.99791C6.35344 5.11299 6.28571 5.26907 6.28571 5.43182L6.28571 6.45455C6.28571 6.68048 6.09384 6.86364 5.85714 6.86364C5.62045 6.86364 5.42857 6.68048 5.42857 6.45455V5.43182C5.42857 5.05208 5.58662 4.6879 5.86792 4.41938C6.14922 4.15086 6.53075 4 6.92857 4L12.5 4C12.8978 4 13.2793 4.15086 13.5607 4.41938C13.842 4.6879 14 5.05208 14 5.43182V11.5682C14 11.9479 13.842 12.3121 13.5607 12.5806C13.2793 12.8491 12.8978 13 12.5 13L6.92857 13C6.53075 13 6.14922 12.8491 5.86792 12.5806C5.58662 12.3121 5.42857 11.9479 5.42857 11.5682V10.5455Z" fill="white"/>
<path d="M2 8.5C2 8.27407 2.19188 8.09091 2.42857 8.09091L9.53678 8.09091L8.12553 6.74381C7.95816 6.58405 7.95816 6.32504 8.12553 6.16528C8.2929 6.00552 8.56424 6.00552 8.73161 6.16528L10.8745 8.21073C11.0418 8.37049 11.0418 8.62951 10.8745 8.78926L8.73161 10.8347C8.56424 10.9945 8.2929 10.9945 8.12553 10.8347C7.95816 10.675 7.95816 10.4159 8.12553 10.2562L9.53678 8.90909L2.42857 8.90909C2.19188 8.90909 2 8.72594 2 8.5Z" fill="white"/>
</svg>
