<svg width="10" height="13" viewBox="0 0 10 13" fill="none" xmlns="http://www.w3.org/2000/svg">
<path d="M2.72727 3.71429C2.97831 3.71429 3.18182 3.92215 3.18182 4.17857C3.18182 4.43499 2.97831 4.64286 2.72727 4.64286H1.59091C1.41008 4.64286 1.23665 4.71623 1.10879 4.84683C0.980921 4.97744 0.909091 5.15458 0.909091 5.33929V11.375L0.909313 11.3923C0.913646 11.5707 0.984915 11.7409 1.10879 11.8675C1.23665 11.9981 1.41008 12.0714 1.59091 12.0714H8.40909C8.58992 12.0714 8.76335 11.9981 8.89121 11.8675C9.01908 11.7368 9.09091 11.5597 9.09091 11.375V5.33929C9.09091 5.15458 9.01908 4.97744 8.89121 4.84683C8.76335 4.71623 8.58992 4.64286 8.40909 4.64286H7.27273C7.02169 4.64286 6.81818 4.43499 6.81818 4.17857C6.81818 3.92215 7.02169 3.71429 7.27273 3.71429H8.40909C8.83103 3.71429 9.23567 3.8855 9.53402 4.19025C9.83238 4.49499 10 4.90831 10 5.33929V11.375C10 11.806 9.83238 12.2193 9.53402 12.524C9.23567 12.8288 8.83103 13 8.40909 13H1.59091C1.16897 13 0.764329 12.8288 0.465976 12.524C0.167622 12.2193 0 11.806 0 11.375V5.33929C0 4.90831 0.167622 4.49499 0.465976 4.19025C0.764329 3.8855 1.16897 3.71429 1.59091 3.71429H2.72727Z" fill="white"/>
<path d="M5 0C5.25104 0 5.45455 0.207868 5.45455 0.464286V8.16484L6.95132 6.63599C7.12883 6.45468 7.41662 6.45468 7.59413 6.63599C7.77164 6.81731 7.77164 7.11126 7.59413 7.29258L5.32141 9.61401C5.14389 9.79532 4.85611 9.79532 4.67859 9.61401L2.40587 7.29258C2.22836 7.11126 2.22836 6.81731 2.40587 6.63599C2.58338 6.45468 2.87117 6.45468 3.04868 6.63599L4.54545 8.16484V0.464286C4.54545 0.207868 4.74896 0 5 0Z" fill="white"/>
</svg>
