<svg width="70" height="70" viewBox="0 0 70 70" fill="none" xmlns="http://www.w3.org/2000/svg">
<g clip-path="url(#clip0_649_2060)">
<path d="M18.9402 0.5H43.7673L64.4744 21.207V60.8867C64.4744 65.6174 60.3703 69.5 55.2449 69.5H18.7224C13.5777 69.5 9.47437 65.6168 9.47437 60.8867V9.11328C9.47428 4.39684 13.7806 0.5 18.9402 0.5Z" fill="white" stroke="#DBDBDB"/>
<path d="M44.0193 14.28V0L64.9744 21H51.0043C44.7178 21 43.7282 16.52 44.0193 14.28Z" fill="#D4D4D8"/>
<g filter="url(#filter0_d_649_2060)">
<rect x="1" y="42" width="34" height="20" rx="4" fill="#0C5AEA" shape-rendering="crispEdges"/>
<path d="M7 49.3945V48H13.6363V49.3945H11.1625V56H9.47382V49.3945H7Z" fill="white"/>
<path d="M16.3311 48L17.9605 50.7266H18.0237L19.661 48H21.5904L19.1245 52L21.6456 56H19.6808L18.0237 53.2695H17.9605L16.3034 56H14.3465L16.8755 52L14.3938 48H16.3311Z" fill="white"/>
<path d="M22.3637 49.3945V48H29V49.3945H26.5262V56H24.8375V49.3945H22.3637Z" fill="white"/>
</g>
</g>
<defs>
<filter id="filter0_d_649_2060" x="-3" y="38" width="42" height="28" filterUnits="userSpaceOnUse" color-interpolation-filters="sRGB">
<feFlood flood-opacity="0" result="BackgroundImageFix"/>
<feColorMatrix in="SourceAlpha" type="matrix" values="0 0 0 0 0 0 0 0 0 0 0 0 0 0 0 0 0 0 127 0" result="hardAlpha"/>
<feOffset/>
<feGaussianBlur stdDeviation="2"/>
<feComposite in2="hardAlpha" operator="out"/>
<feColorMatrix type="matrix" values="0 0 0 0 0 0 0 0 0 0 0 0 0 0 0 0 0 0 0.34 0"/>
<feBlend mode="normal" in2="BackgroundImageFix" result="effect1_dropShadow_649_2060"/>
<feBlend mode="normal" in="SourceGraphic" in2="effect1_dropShadow_649_2060" result="shape"/>
</filter>
<clipPath id="clip0_649_2060">
<rect width="70" height="70" fill="white"/>
</clipPath>
</defs>
</svg>
