<svg width="14" height="12" viewBox="0 0 14 12" fill="none" xmlns="http://www.w3.org/2000/svg">
<path d="M12 0H2C1.46974 0.000579017 0.961373 0.211479 0.586426 0.586426C0.211479 0.961373 0.000579017 1.46974 0 2V10C0.000579017 10.5303 0.211479 11.0386 0.586426 11.4136C0.961373 11.7885 1.46974 11.9994 2 12H12C12.5303 11.9994 13.0386 11.7885 13.4136 11.4136C13.7885 11.0386 13.9994 10.5303 14 10V2C13.9994 1.46974 13.7885 0.961373 13.4136 0.586426C13.0386 0.211479 12.5303 0.000579017 12 0ZM9.5 2C9.79667 2 10.0867 2.08797 10.3334 2.2528C10.58 2.41762 10.7723 2.65189 10.8858 2.92597C10.9994 3.20006 11.0291 3.50166 10.9712 3.79264C10.9133 4.08361 10.7704 4.35088 10.5607 4.56066C10.3509 4.77044 10.0836 4.9133 9.79264 4.97118C9.50166 5.02906 9.20006 4.99935 8.92597 4.88582C8.65189 4.77229 8.41762 4.58003 8.2528 4.33336C8.08797 4.08668 8 3.79667 8 3.5C8.00041 3.1023 8.15858 2.72101 8.4398 2.4398C8.72101 2.15858 9.1023 2.00041 9.5 2ZM2 11C1.73478 11 1.48043 10.8946 1.29289 10.7071C1.10536 10.5196 1 10.2652 1 10V7.88656L3.96375 5.25219C4.2497 4.99858 4.62159 4.86354 5.00364 4.87457C5.38569 4.8856 5.74916 5.04188 6.02 5.31156L8.04969 7.33687L4.38656 11H2ZM13 10C13 10.2652 12.8946 10.5196 12.7071 10.7071C12.5196 10.8946 12.2652 11 12 11H5.80094L9.59531 7.20562C9.86396 6.97717 10.2049 6.8513 10.5575 6.85039C10.9102 6.84947 11.2517 6.97356 11.5216 7.20063L13 8.4325V10Z" fill="#0045FE" fill-opacity="0.8"/>
</svg>
