<svg width="16" height="16" viewBox="0 0 16 16" fill="none" xmlns="http://www.w3.org/2000/svg">
<path d="M7.98925 4.75649C7.71685 4.75649 7.48268 4.67443 7.28674 4.51031C7.09558 4.3462 7 4.13772 7 3.8849C7 3.63207 7.09558 3.42138 7.28674 3.25283C7.48268 3.08428 7.71685 3 7.98925 3C8.27121 3 8.51016 3.08428 8.70609 3.25283C8.90203 3.42138 9 3.63207 9 3.8849C9 4.12442 8.90203 4.33067 8.70609 4.50366C8.51016 4.67221 8.27121 4.75649 7.98925 4.75649ZM8.81362 12.2282C8.81362 12.6545 8.44133 13 7.98208 13C7.52283 13 7.15054 12.6545 7.15054 12.2282V6.95875C7.15054 6.5325 7.52283 6.18696 7.98208 6.18696C8.44133 6.18696 8.81362 6.5325 8.81362 6.95875V12.2282Z" fill="white"/>
</svg>
