<svg width="10" height="12" viewBox="0 0 10 12" fill="none" xmlns="http://www.w3.org/2000/svg">
<path d="M7.91554 2.83352L5 5.66704L4.35719 5.04231L6.2437 3.20884C5.97858 3.18298 5.58248 3.16484 5 3.16484C4.1909 3.16484 3.39996 3.39802 2.72722 3.83489C2.05447 4.27176 1.53011 4.89269 1.22048 5.61918C0.910852 6.34566 0.829841 7.14507 0.987687 7.9163C1.14554 8.68753 1.53517 9.39596 2.10729 9.95199C2.67942 10.508 3.40835 10.8867 4.20191 11.0401C4.99546 11.1935 5.81801 11.1148 6.56552 10.8139C7.31304 10.5129 7.95195 10.0033 8.40146 9.34951C8.85098 8.69569 9.09091 7.927 9.09091 7.14066V6.6989H10V7.14066C10 8.10175 9.70676 9.04125 9.15735 9.84036C8.60795 10.6395 7.82705 11.2623 6.91342 11.6301C5.99979 11.9979 4.99445 12.0941 4.02455 11.9066C3.05464 11.7191 2.16372 11.2563 1.46445 10.5767C0.765193 9.89715 0.289001 9.03129 0.0960743 8.08867C-0.0968518 7.14605 0.00217091 6.16899 0.380609 5.28106C0.759048 4.39314 1.39991 3.63421 2.22215 3.10026C3.0444 2.56631 4.0111 2.28132 5 2.28132C5.45372 2.28132 5.81091 2.29201 6.09159 2.31033L4.35719 0.624728L5 0L7.91554 2.83352Z" fill="white"/>
</svg>
