<svg width="16" height="16" viewBox="0 0 16 16" fill="none" xmlns="http://www.w3.org/2000/svg">
<path d="M10.9155 5.09304L8 7.92656L7.35719 7.30183L9.2437 5.46836C8.97858 5.4425 8.58248 5.42436 8 5.42436C7.1909 5.42436 6.39996 5.65754 5.72722 6.09441C5.05447 6.53128 4.53011 7.15221 4.22048 7.8787C3.91085 8.60518 3.82984 9.40459 3.98769 10.1758C4.14554 10.9471 4.53517 11.6555 5.10729 12.2115C5.67942 12.7675 6.40835 13.1462 7.20191 13.2996C7.99546 13.453 8.81801 13.3743 9.56552 13.0734C10.313 12.7725 10.9519 12.2628 11.4015 11.609C11.851 10.9552 12.0909 10.1865 12.0909 9.40018V8.95842H13V9.40018C13 10.3613 12.7068 11.3008 12.1574 12.0999C11.6079 12.899 10.8271 13.5218 9.91342 13.8896C8.99979 14.2574 7.99445 14.3536 7.02455 14.1662C6.05464 13.9787 5.16372 13.5159 4.46445 12.8363C3.76519 12.1567 3.289 11.2908 3.09607 10.3482C2.90315 9.40557 3.00217 8.42851 3.38061 7.54059C3.75905 6.65266 4.39991 5.89373 5.22215 5.35978C6.0444 4.82583 7.0111 4.54084 8 4.54084C8.45372 4.54084 8.81091 4.55153 9.09159 4.56985L7.35719 2.88425L8 2.25952L10.9155 5.09304Z" fill="#141414"/>
</svg>
